# xmcd
#
# Track frame offsets: 
#        150
#        21695
#        41832
#        66967
#        89197
#        109875
#        129742
#        153042
#        173940
#        191790
#
# Disc length: 2872 seconds
#
# Revision: 0
# Processed by: cddbd v1.5.2PL0 Copyright (c) Steve Scherf et al.
# Submitted via: ExactAudioCopy v1.0b3
#
DISCID=970b360a
DTITLE=Tuan Vu, VA - Dem Buon Tinh Le
DYEAR=1993
DGENRE=
TTITLE0=Tuan Vu, Phuong Mai - Hoa su nha nang
TTITLE1=Tuan Vu, Giao Linh - Duong tinh doi nga
TTITLE2=Tuan Vu, Thien Trang - Sau tim thiep hong
TTITLE3=Tuan Vu, Thanh Tuyen - Roi ngay mai xa nhau
TTITLE4=Tuan Vu, Huong Lan - Doi mat nguoi xua
TTITLE5=Tuan Vu, Phuong Mai - Dem buon tinh le
TTITLE6=Tuan Vu, Giao Linh - Thoang giac mo qua
TTITLE7=Tuan Vu, Thien Trang - Ngay cuoi em
TTITLE8=Tuan Vu, Thanh Tuyen - Neu anh la linh
TTITLE9=Tuan Vu, Huong Lan - Gap nhau
EXTD=
EXTT0=
EXTT1=
EXTT2=
EXTT3=
EXTT4=
EXTT5=
EXTT6=
EXTT7=
EXTT8=
EXTT9=
PLAYORDER=
